inDegrees=no
num_controls=7
num_derivatives=13
num_iterations=103
num_multipliers=7
num_parameters=0
num_slacks=7
num_states=26
objective=4.991768
objective_accelerations=0.697236
objective_balance=0.085631
objective_effort=0.676472
objective_height=3.452468
objective_ligament=0.079962
solver_duration=1040.594327
status=Solve_Succeeded
success=true
DataType=double
version=3
OpenSimVersion=4.4-2022-07-23-0e9fedc
endheader
time	/jointset/ground_pelvis/pelvis_tilt/value	/jointset/ground_pelvis/pelvis_tx/value	/jointset/ground_pelvis/pelvis_ty/value	/jointset/hip_l/hip_flexion_l/value	/jointset/hip_l/hip_adduction_l/value	/jointset/hip_l/hip_rotation_l/value	/jointset/back/lumbar_extension/value	/jointset/patellofemoral_l/patellar_flexion_l/value	/jointset/knee_l/knee_flexion_l/value	/jointset/knee_l/knee_adduction_l/value	/jointset/knee_l/knee_rotation_l/value	/jointset/ankle_l/ankle_angle_l/value	/jointset/subtalar_l/subtalar_angle_l/value	/jointset/ground_pelvis/pelvis_tilt/speed	/jointset/ground_pelvis/pelvis_tx/speed	/jointset/ground_pelvis/pelvis_ty/speed	/jointset/hip_l/hip_flexion_l/speed	/jointset/hip_l/hip_adduction_l/speed	/jointset/hip_l/hip_rotation_l/speed	/jointset/back/lumbar_extension/speed	/jointset/patellofemoral_l/patellar_flexion_l/speed	/jointset/knee_l/knee_flexion_l/speed	/jointset/knee_l/knee_adduction_l/speed	/jointset/knee_l/knee_rotation_l/speed	/jointset/ankle_l/ankle_angle_l/speed	/jointset/subtalar_l/subtalar_angle_l/speed	/forceset/tau_hip_flexion_l	/forceset/tau_hip_adduction_l	/forceset/tau_hip_rotation_l	/forceset/tau_knee_flexion_l	/forceset/tau_ankle_angle_l	/forceset/tau_subtalar_angle_l	/forceset/tau_lumbar_extension	lambda_cid13_p0	lambda_cid13_p1	lambda_cid13_p2	lambda_cid13_p3	lambda_cid13_p4	lambda_cid13_p5	lambda_cid14_p0	/jointset/ground_pelvis/pelvis_tilt/accel	/jointset/ground_pelvis/pelvis_tx/accel	/jointset/ground_pelvis/pelvis_ty/accel	/jointset/hip_l/hip_flexion_l/accel	/jointset/hip_l/hip_adduction_l/accel	/jointset/hip_l/hip_rotation_l/accel	/jointset/back/lumbar_extension/accel	/jointset/patellofemoral_l/patellar_flexion_l/accel	/jointset/knee_l/knee_flexion_l/accel	/jointset/knee_l/knee_adduction_l/accel	/jointset/knee_l/knee_rotation_l/accel	/jointset/ankle_l/ankle_angle_l/accel	/jointset/subtalar_l/subtalar_angle_l/accel	gamma_cid13_p0	gamma_cid13_p1	gamma_cid13_p2	gamma_cid13_p3	gamma_cid13_p4	gamma_cid13_p5	gamma_cid14_p0
1.5	-0.06399084700300349	-0.04256671111116437	0.7446521813507615	1.103206468842752	-0.3121456507518829	-0.06728165773811225	-0.8483007804388918	1.210029407704554	1.210029407704563	0.02222387726720618	-0.1745206151232654	0.2656564877319934	0.08245813421792797	0.4350080932484638	0.2070689703673345	0.8956273862585117	-3.083334304306901	0.04465651269597888	-0.6559338668587624	0.7589655093507099	-3.031943155018266	-3.031943155018207	-0.4677598422437978	7.730060788130696e-05	-0.576050940710245	-0.1942467210543798	-0.272800352998928	0.02366682325339037	-0.01771496016910563	-0.2922032989429078	0.05996664861173069	0.04408890001410867	0.3366807733484923	-21.41821077240107	-13.9660658583132	0.1370683707286035	-15.23180152390334	-666.7666959694111	-64.45049970268632	-0.8002908955837822	0.9716720922484772	1.223057644362293	-0.9165719513384921	-1.50181960039767	0.417236340768999	-0.8830728564328654	2.936667585072104	-2.434412669439365	-2.434412669439341	-0.1446333889027848	0.08618717304527024	-2.03272947991369	-0.1929239208423025	5.912810789923579e-07	3.885163615540894e-06	-1.45615098918092e-06	4.607792059517644e-07	6.949857026794089e-07	5.904058967972196e-07	6.951704929094256e-07
1.51	-0.05959280195430442	-0.04043484559421686	0.7535604941420275	1.072300487364389	-0.3116803576037767	-0.07388637470969758	-0.8405654045886852	1.179591699455309	1.179591699455315	0.01753698257942444	-0.1745199000222641	0.2597955305903333	0.08050390891635621	0.4444759066476248	0.2192996279151473	0.8858117486294105	-3.097498462382631	0.04840723449417553	-0.6649907775959347	0.7880662414269747	-3.055191938864114	-3.055191938864026	-0.4696052570625546	7.156463504412293e-05	-0.5959535349251351	-0.1964928358958532	-0.2624815011830839	0.02351387067138195	-0.01706340843248618	-0.2843809666791408	0.06092851143494239	0.04425785516129717	0.3264582070580579	-20.48631379381957	-14.40094334428985	0.4329423849959885	-15.50757577144562	-656.7803910335642	-64.57806226169232	-1.307780657389551	0.9156418496466785	1.22248354916519	-1.047413316104377	-1.319122256546033	0.354661717577894	-0.9133860770441266	2.890263129036033	-2.209280213134492	-2.209280213130238	-0.2016680955544967	-0.04334662632935685	-1.940763462106547	-0.2251179165343958	6.484732165300234e-07	4.172966927066714e-06	-1.63316941883047e-06	4.520290359455744e-07	7.638239247269844e-07	7.495133312101261e-07	7.39165478918005e-07
1.52	-0.05510381759446032	-0.03818079075395724	0.7623639798275206	1.041263782636163	-0.3111774229140565	-0.08058093796756229	-0.8325403239956936	1.148933669573411	1.148933669573426	0.0128321992299828	-0.1745191208097795	0.2537411996925577	0.07853028993622173	0.4531959554827108	0.2315068350297554	0.8746619651039504	-3.10947895427378	0.05218482102168971	-0.6739031241204884	0.8169064579085713	-3.076007481549041	-3.076007481548925	-0.4713375745690176	9.01229069611394e-05	-0.6147256919332146	-0.1981254567667057	-0.252162649367288	0.02336091808938896	-0.01641185669608251	-0.2765586344153921	0.06189037425816685	0.04442681030851568	0.3162356407675792	-19.55078122968671	-14.84972075133966	0.7461824387049356	-15.85038256818523	-646.7419891473157	-64.80110194339306	-1.934393892854052	0.8221191794330334	1.218367557721682	-1.183401130610171	-1.06508636348151	0.4226092866323745	-0.8541600139092161	2.884564466138225	-1.94776443725529	-1.947764437255279	-0.1220139264441072	0.09104602199597636	-1.806642038551101	-0.07022512671805002	7.036837215006414e-07	4.509070334492733e-06	-1.76724006133414e-06	4.513745513971871e-07	8.381409149301924e-07	9.470127902430749e-07	7.824411485671712e-07
1.53	-0.05053132971278992	-0.03580489760313372	0.7710494216045488	1.010118028918857	-0.3106367235280111	-0.08736423375158847	-0.8242286031331479	1.118079731567551	1.118079731567496	0.008110454897664527	-0.174518424865451	0.2475048983374767	0.07654324546336738	0.4611677170449021	0.2436544440219272	0.8622112221516428	-3.119287271828332	0.05596239091939335	-0.6827278694695176	0.8453632641179626	-3.09434395294958	-3.094343952949608	-0.4730034957203106	5.859750305384432e-05	-0.6323297918199137	-0.1991744405892744	-0.2416269378727853	0.02296178745612307	-0.01578931744127013	-0.2691116639975001	0.06296405469372172	0.0442895449890694	0.305734728924785	-18.61674368418292	-15.14666966491713	1.013999340565436	-16.02853382491567	-636.8820611891954	-64.79268427905167	-2.675699380041271	0.7646748450471637	1.210447619350034	-1.307993863579815	-0.8809638967730826	0.3562738941535231	-0.891512816088447	2.815071125607642	-1.711333032748707	-1.71133303277031	-0.1868543848879149	-0.04911768892410972	-1.706323032820967	-0.1064777895526809	7.567887418687715e-07	4.896492593812713e-06	-1.855678679995313e-06	4.59321732647715e-07	9.182790962987595e-07	1.185303775434818e-06	8.249525445844612e-07
1.54	-0.04588313017543635	-0.03330803035251245	0.7796039393548457	0.9788857401369124	-0.3100580598324406	-0.0942347531932088	-0.815634547723059	1.087055479939426	1.087055479939314	0.003372456718733403	-0.1745178173486317	0.241098750169711	0.07454886259638113	0.4683382866245494	0.2557016549893039	0.8484771597577643	-3.126785967196129	0.05977768292965852	-0.6913478556460859	0.8733733674181164	-3.110070206001939	-3.110070206002111	-0.474588343888254	7.243740554854597e-05	-0.6486950544702726	-0.1995931355928955	-0.2310912263783237	0.02256265682289686	-0.01516677818658628	-0.2616646935796197	0.06403773512929474	0.04415227966968507	0.2952338170819486	-17.67501696337668	-15.45942513438966	1.300853672268579	-16.28409640077616	-626.9177308810634	-64.88528568917491	-3.528618146460349	0.6618807829237821	1.198287952763051	-1.440065018924327	-0.603161926130575	0.4301537091445499	-0.813208179417133	2.795223884290444	-1.425720767619239	-1.425720767619241	-0.1057993297743179	0.1001190832762572	-1.558874591282525	0.05583263707160668	8.069577947036166e-07	5.348187357484549e-06	-1.889992048450775e-06	4.786294426630711e-07	1.002343855633098e-06	1.454421875353335e-06	8.681618240737483e-07
